<?xml version="1.0" encoding="UTF-8" standalone="no"?>
<svg
   xmlns:osb="http://www.openswatchbook.org/uri/2009/osb"
   xmlns:dc="http://purl.org/dc/elements/1.1/"
   xmlns:cc="http://creativecommons.org/ns#"
   xmlns:rdf="http://www.w3.org/1999/02/22-rdf-syntax-ns#"
   xmlns:svg="http://www.w3.org/2000/svg"
   xmlns="http://www.w3.org/2000/svg"
   xmlns:sodipodi="http://sodipodi.sourceforge.net/DTD/sodipodi-0.dtd"
   xmlns:inkscape="http://www.inkscape.org/namespaces/inkscape"
   width="16.154549mm"
   height="7.9022298mm"
   viewBox="0 0 16.154549 7.9022298"
   version="1.1"
   id="svg8"
   sodipodi:docname="logo.svg"
   inkscape:version="1.0.2-2 (e86c870879, 2021-01-15)">
  <defs
     id="defs2">
    <linearGradient
       id="linearGradient2911"
       osb:paint="solid">
      <stop
         style="stop-color:#ff00ff;stop-opacity:1;"
         offset="0"
         id="stop2909" />
    </linearGradient>
    <rect
       x="52.759007"
       y="129.09119"
       width="32.272797"
       height="21.702286"
       id="rect58" />
  </defs>
  <sodipodi:namedview
     id="base"
     pagecolor="#ffffff"
     bordercolor="#666666"
     borderopacity="1.0"
     inkscape:pageopacity="0.0"
     inkscape:pageshadow="2"
     inkscape:zoom="0.70710678"
     inkscape:cx="-112.35198"
     inkscape:cy="116.17605"
     inkscape:document-units="mm"
     inkscape:current-layer="layer1"
     inkscape:document-rotation="0"
     showgrid="false"
     inkscape:window-width="1920"
     inkscape:window-height="1121"
     inkscape:window-x="-9"
     inkscape:window-y="-9"
     inkscape:window-maximized="1"
     inkscape:pagecheckerboard="true"
     fit-margin-top="0"
     fit-margin-left="0"
     fit-margin-right="0"
     fit-margin-bottom="0" />
  <metadata
     id="metadata5">
    <rdf:RDF>
      <cc:Work
         rdf:about="">
        <dc:format>image/svg+xml</dc:format>
        <dc:type
           rdf:resource="http://purl.org/dc/dcmitype/StillImage" />
        <dc:title></dc:title>
      </cc:Work>
    </rdf:RDF>
  </metadata>
  <g
     inkscape:label="Layer 1"
     inkscape:groupmode="layer"
     id="layer1"
     transform="translate(-53.849845,-130.5029)">
    <g
       aria-label="BV/"
       id="text56"
       style="font-style:normal;font-weight:normal;font-size:10.5833px;line-height:0;font-family:sans-serif;white-space:pre;shape-inside:url(#rect58);fill:#222222;fill-opacity:1;stroke:none">
      <path
         d="m 55.871256,130.5029 c 0.776109,0 1.386412,0.15875 1.830911,0.47625 0.444498,0.3175 0.666747,0.80433 0.666747,1.4605 0,0.41627 -0.09525,0.7761 -0.285749,1.07949 -0.190499,0.29633 -0.458609,0.52917 -0.80433,0.6985 -0.338666,0.16933 -0.737304,0.26458 -1.195913,0.28575 l -0.15875,-0.59266 c 0.536221,0.0141 1.015997,0.10938 1.439329,0.28575 0.423332,0.16933 0.75847,0.40921 1.005413,0.71966 0.253999,0.30339 0.380999,0.66675 0.380999,1.09008 0,0.38805 -0.07408,0.71966 -0.222249,0.99483 -0.141111,0.27517 -0.335138,0.50094 -0.582082,0.67733 -0.239888,0.16933 -0.515054,0.29633 -0.825497,0.381 -0.303388,0.0776 -0.620887,0.11642 -0.952497,0.11642 h -2.317743 v -7.6729 z m -0.920747,3.32316 h 1.121829 c 0.402165,0 0.69497,-0.11289 0.878414,-0.33867 0.183444,-0.23283 0.275166,-0.50446 0.275166,-0.81491 0,-0.381 -0.119944,-0.65969 -0.359832,-0.83608 -0.232833,-0.17639 -0.546804,-0.26458 -0.941914,-0.26458 h -0.973663 m 1.164159,5.5774 c 0.416276,0 0.769053,-0.0917 1.05833,-0.27517 0.289277,-0.18345 0.433915,-0.4692 0.433915,-0.85725 0,-0.28222 -0.07761,-0.50447 -0.232833,-0.66675 -0.155221,-0.16227 -0.352776,-0.27869 -0.592665,-0.34924 -0.239888,-0.0706 -0.486831,-0.10584 -0.74083,-0.10584 h -1.09008 v 2.25425 z"
         style="font-style:normal;font-variant:normal;font-weight:normal;font-stretch:normal;line-height:1.25;font-family:'Reem Kufi';-inkscape-font-specification:'Reem Kufi';fill:#222222;fill-opacity:1"
         id="path78"
         sodipodi:nodetypes="sssccccccscccsccscscscscssssssccs" />
      <path
         d="m 70.004393,130.516 c -0.484249,1.31634 -0.968498,2.62927 -1.452746,3.93879 -0.484248,1.30951 -0.968497,2.62244 -1.452745,3.93878 h -1.289056 c 0.484248,-1.31634 0.968497,-2.62927 1.452746,-3.93878 0.484248,-1.30952 0.968496,-2.62245 1.452745,-3.93879 z"
         style="font-style:normal;font-variant:normal;font-weight:bold;font-stretch:normal;font-size:10.2306px;line-height:1.25;font-family:'Reem Kufi';-inkscape-font-specification:'Reem Kufi Bold';letter-spacing:-0.399521px;fill:#222222;fill-opacity:1"
         id="path82"
         sodipodi:nodetypes="csccscc" />
    </g>
    <path
       style="font-style:normal;font-weight:normal;font-size:10.5833px;line-height:0;font-family:sans-serif;letter-spacing:-0.399521px;white-space:pre;shape-inside:url(#rect58);fill:#f7c948;fill-opacity:1;stroke:none;stroke-width:1;stroke-miterlimit:4;stroke-dasharray:none"
       d="m 62.313828,137.08042 -2.547927,-6.57752 h 1.322913 l 1.990981,4.76546"
       id="path126" />
    <path
       style="font-style:normal;font-weight:normal;font-size:10.5833px;line-height:0;font-family:sans-serif;letter-spacing:-0.399521px;white-space:pre;shape-inside:url(#rect58);fill:#222222;fill-opacity:1;stroke:none"
       d="m 62.16769,138.40513 3.101527,-7.90223 h 1.312329 l -3.337664,7.89826"
       id="path80" />
  </g>
</svg>
