<?xml version="1.0" encoding="UTF-8" standalone="no"?>
<svg
   width="16.154549mm"
   height="7.9022298mm"
   viewBox="0 0 16.154549 7.9022298"
   version="1.1"
   id="svg8"
   sodipodi:docname="favicon.svg"
   inkscape:version="1.2 (dc2aeda, 2022-05-15)"
   inkscape:export-filename="favicon.ico.png"
   inkscape:export-xdpi="96"
   inkscape:export-ydpi="96"
   xmlns:inkscape="http://www.inkscape.org/namespaces/inkscape"
   xmlns:sodipodi="http://sodipodi.sourceforge.net/DTD/sodipodi-0.dtd"
   xmlns="http://www.w3.org/2000/svg"
   xmlns:svg="http://www.w3.org/2000/svg"
   xmlns:rdf="http://www.w3.org/1999/02/22-rdf-syntax-ns#"
   xmlns:cc="http://creativecommons.org/ns#"
   xmlns:dc="http://purl.org/dc/elements/1.1/">
  <defs
     id="defs2">
    <linearGradient
       id="linearGradient2911"
       inkscape:swatch="solid">
      <stop
         style="stop-color:#ff00ff;stop-opacity:1;"
         offset="0"
         id="stop2909" />
    </linearGradient>
    <rect
       x="52.759007"
       y="129.09119"
       width="32.272797"
       height="21.702286"
       id="rect58" />
  </defs>
  <sodipodi:namedview
     id="base"
     pagecolor="#ffffff"
     bordercolor="#666666"
     borderopacity="1.0"
     inkscape:pageopacity="0.0"
     inkscape:pageshadow="2"
     inkscape:zoom="13.254748"
     inkscape:cx="27.763637"
     inkscape:cy="17.540884"
     inkscape:document-units="mm"
     inkscape:current-layer="layer1"
     inkscape:document-rotation="0"
     showgrid="false"
     inkscape:window-width="1440"
     inkscape:window-height="847"
     inkscape:window-x="0"
     inkscape:window-y="25"
     inkscape:window-maximized="1"
     inkscape:pagecheckerboard="true"
     fit-margin-top="0"
     fit-margin-left="0"
     fit-margin-right="0"
     fit-margin-bottom="0"
     inkscape:showpageshadow="2"
     inkscape:deskcolor="#d1d1d1" />
  <metadata
     id="metadata5">
    <rdf:RDF>
      <cc:Work
         rdf:about="">
        <dc:format>image/svg+xml</dc:format>
        <dc:type
           rdf:resource="http://purl.org/dc/dcmitype/StillImage" />
        <dc:title />
      </cc:Work>
    </rdf:RDF>
  </metadata>
  <g
     inkscape:label="Layer 1"
     inkscape:groupmode="layer"
     id="layer1"
     transform="translate(-53.849845,-130.5029)">
    <g
       aria-label="BV/"
       id="text56"
       style="font-style:normal;font-weight:normal;font-size:10.5833px;line-height:0;font-family:sans-serif;white-space:pre;shape-inside:url(#rect58);fill:#222222;fill-opacity:1;stroke:none">
      <path
         d="m 55.930932,130.5029 c 0.799021,0 1.427341,0.16344 1.884962,0.49031 0.457621,0.32688 0.686431,0.82807 0.686431,1.50362 0,0.42855 -0.09806,0.799 -0.294184,1.11135 -0.196124,0.30509 -0.472149,0.5448 -0.828077,0.71913 -0.348664,0.17432 -0.75907,0.27239 -1.231217,0.29419 l -0.163437,-0.61016 c 0.552051,0.0145 1.04599,0.11261 1.48182,0.29418 0.435829,0.17433 0.780861,0.4213 1.035095,0.74091 0.261498,0.31234 0.392247,0.68643 0.392247,1.12226 0,0.39951 -0.07626,0.7409 -0.228811,1.0242 -0.145276,0.28329 -0.345032,0.51573 -0.599265,0.69732 -0.24697,0.17433 -0.53026,0.30508 -0.849868,0.39225 -0.312344,0.0799 -0.639217,0.11985 -0.980616,0.11985 h -2.386167 v -7.89941 z m -0.94793,3.42126 h 1.154948 c 0.414037,0 0.715487,-0.11622 0.904346,-0.34866 0.18886,-0.2397 0.28329,-0.51936 0.28329,-0.83897 0,-0.39225 -0.123485,-0.67917 -0.370455,-0.86076 -0.239706,-0.1816 -0.562947,-0.27239 -0.969721,-0.27239 h -1.002408 m 1.198528,5.74205 c 0.428564,0 0.791756,-0.0944 1.089573,-0.28329 0.297817,-0.18887 0.446726,-0.48306 0.446726,-0.88256 0,-0.29055 -0.0799,-0.51936 -0.239708,-0.68643 -0.159803,-0.16706 -0.36319,-0.28693 -0.610161,-0.35955 -0.24697,-0.0727 -0.501203,-0.10897 -0.7627,-0.10897 h -1.122262 v 2.3208 z"
         style="font-style:normal;font-variant:normal;font-weight:normal;font-stretch:normal;line-height:1.25;font-family:'Reem Kufi';-inkscape-font-specification:'Reem Kufi';fill:#222222;fill-opacity:1;stroke-width:1.02952"
         id="path78"
         sodipodi:nodetypes="sssccccccscccsccscscscscssssssccs" />
      <path
         d="m 70.004393,130.516 c -0.484249,1.31634 -0.968498,2.62927 -1.452746,3.93879 -0.484248,1.30951 -0.968497,2.62244 -1.452745,3.93878 h -1.289056 c 0.484248,-1.31634 0.968497,-2.62927 1.452746,-3.93878 0.484248,-1.30952 0.968496,-2.62245 1.452745,-3.93879 z"
         style="font-style:normal;font-variant:normal;font-weight:bold;font-stretch:normal;font-size:10.2306px;line-height:1.25;font-family:'Reem Kufi';-inkscape-font-specification:'Reem Kufi Bold';letter-spacing:-0.399521px;fill:#222222;fill-opacity:1"
         id="path82"
         sodipodi:nodetypes="csccscc" />
    </g>
    <path
       style="font-style:normal;font-weight:normal;font-size:10.5833px;line-height:0;font-family:sans-serif;letter-spacing:-0.399521px;white-space:pre;shape-inside:url(#rect58);fill:#f7c948;fill-opacity:1;stroke:none;stroke-width:1;stroke-miterlimit:4;stroke-dasharray:none"
       d="m 62.313828,137.08042 -2.547927,-6.57752 h 1.322913 l 1.990981,4.76546"
       id="path126" />
    <path
       style="font-style:normal;font-weight:normal;font-size:10.5833px;line-height:0;font-family:sans-serif;letter-spacing:-0.399521px;white-space:pre;shape-inside:url(#rect58);fill:#f7c948;fill-opacity:1;stroke:none;stroke-width:1;stroke-miterlimit:4;stroke-dasharray:none"
       d="m 65.885516,137.09116 -2.547927,-6.57752 h 1.322913 l 1.990981,4.76546"
       id="path126-4" />
    <path
       style="font-style:normal;font-weight:normal;font-size:10.5833px;line-height:0;font-family:sans-serif;letter-spacing:-0.399521px;white-space:pre;shape-inside:url(#rect58);fill:#222222;fill-opacity:1;stroke:none"
       d="m 62.16769,138.40513 3.101527,-7.90223 h 1.312329 l -3.337664,7.89826"
       id="path80" />
  </g>
</svg>
